<mxfile host="app.diagrams.net" agent="Mozilla/5.0 (Windows NT 10.0; Win64; x64) AppleWebKit/537.36 (KHTML, like Gecko) Chrome/133.0.0.0 Safari/537.36 Edg/133.0.0.0" version="26.0.16">
  <diagram name="Page-1" id="UYoGRurkyZhsz1mcClYL">
    <mxGraphModel dx="1176" dy="1091" grid="0" gridSize="10" guides="1" tooltips="1" connect="1" arrows="1" fold="1" page="0" pageScale="1" pageWidth="827" pageHeight="1169" math="0" shadow="0">
      <root>
        <mxCell id="0" />
        <mxCell id="1" parent="0" />
        <mxCell id="hVPJP7GmSXmlCk5Nkvxj-1" value="Node&amp;lt;Tkey, TValue&amp;gt;" style="swimlane;fontStyle=1;align=center;verticalAlign=top;childLayout=stackLayout;horizontal=1;startSize=26;horizontalStack=0;resizeParent=1;resizeParentMax=0;resizeLast=0;collapsible=1;marginBottom=0;whiteSpace=wrap;html=1;fillColor=#ffe6cc;strokeColor=#d79b00;" vertex="1" parent="1">
          <mxGeometry x="569" y="241" width="230" height="138" as="geometry" />
        </mxCell>
        <mxCell id="hVPJP7GmSXmlCk5Nkvxj-2" value="TKey Key" style="text;strokeColor=none;fillColor=none;align=left;verticalAlign=top;spacingLeft=4;spacingRight=4;overflow=hidden;rotatable=0;points=[[0,0.5],[1,0.5]];portConstraint=eastwest;whiteSpace=wrap;html=1;" vertex="1" parent="hVPJP7GmSXmlCk5Nkvxj-1">
          <mxGeometry y="26" width="230" height="26" as="geometry" />
        </mxCell>
        <mxCell id="hVPJP7GmSXmlCk5Nkvxj-5" value="List&amp;lt;TValue&amp;gt; Values" style="text;strokeColor=none;fillColor=none;align=left;verticalAlign=top;spacingLeft=4;spacingRight=4;overflow=hidden;rotatable=0;points=[[0,0.5],[1,0.5]];portConstraint=eastwest;whiteSpace=wrap;html=1;" vertex="1" parent="hVPJP7GmSXmlCk5Nkvxj-1">
          <mxGeometry y="52" width="230" height="26" as="geometry" />
        </mxCell>
        <mxCell id="hVPJP7GmSXmlCk5Nkvxj-3" value="" style="line;strokeWidth=1;fillColor=none;align=left;verticalAlign=middle;spacingTop=-1;spacingLeft=3;spacingRight=3;rotatable=0;labelPosition=right;points=[];portConstraint=eastwest;strokeColor=inherit;" vertex="1" parent="hVPJP7GmSXmlCk5Nkvxj-1">
          <mxGeometry y="78" width="230" height="8" as="geometry" />
        </mxCell>
        <mxCell id="hVPJP7GmSXmlCk5Nkvxj-4" value="Node(TKey key, TValue value)" style="text;strokeColor=none;fillColor=none;align=left;verticalAlign=top;spacingLeft=4;spacingRight=4;overflow=hidden;rotatable=0;points=[[0,0.5],[1,0.5]];portConstraint=eastwest;whiteSpace=wrap;html=1;" vertex="1" parent="hVPJP7GmSXmlCk5Nkvxj-1">
          <mxGeometry y="86" width="230" height="26" as="geometry" />
        </mxCell>
        <mxCell id="hVPJP7GmSXmlCk5Nkvxj-6" value="Node(TKey key, Lits&amp;lt;TValue&amp;gt; value)" style="text;strokeColor=none;fillColor=none;align=left;verticalAlign=top;spacingLeft=4;spacingRight=4;overflow=hidden;rotatable=0;points=[[0,0.5],[1,0.5]];portConstraint=eastwest;whiteSpace=wrap;html=1;" vertex="1" parent="hVPJP7GmSXmlCk5Nkvxj-1">
          <mxGeometry y="112" width="230" height="26" as="geometry" />
        </mxCell>
        <mxCell id="hVPJP7GmSXmlCk5Nkvxj-7" value="MyHashTable&amp;lt;TKey, TValue&amp;gt;" style="swimlane;fontStyle=1;align=center;verticalAlign=top;childLayout=stackLayout;horizontal=1;startSize=26;horizontalStack=0;resizeParent=1;resizeParentMax=0;resizeLast=0;collapsible=1;marginBottom=0;whiteSpace=wrap;html=1;fillColor=#ffe6cc;strokeColor=#d79b00;" vertex="1" parent="1">
          <mxGeometry x="97" y="117" width="348" height="440" as="geometry" />
        </mxCell>
        <mxCell id="hVPJP7GmSXmlCk5Nkvxj-8" value="Node&amp;lt;TKey, TValue&amp;gt; _items" style="text;strokeColor=none;fillColor=none;align=left;verticalAlign=top;spacingLeft=4;spacingRight=4;overflow=hidden;rotatable=0;points=[[0,0.5],[1,0.5]];portConstraint=eastwest;whiteSpace=wrap;html=1;" vertex="1" parent="hVPJP7GmSXmlCk5Nkvxj-7">
          <mxGeometry y="26" width="348" height="26" as="geometry" />
        </mxCell>
        <mxCell id="hVPJP7GmSXmlCk5Nkvxj-13" value="int _size" style="text;strokeColor=none;fillColor=none;align=left;verticalAlign=top;spacingLeft=4;spacingRight=4;overflow=hidden;rotatable=0;points=[[0,0.5],[1,0.5]];portConstraint=eastwest;whiteSpace=wrap;html=1;" vertex="1" parent="hVPJP7GmSXmlCk5Nkvxj-7">
          <mxGeometry y="52" width="348" height="26" as="geometry" />
        </mxCell>
        <mxCell id="hVPJP7GmSXmlCk5Nkvxj-15" value="" style="line;strokeWidth=1;fillColor=none;align=left;verticalAlign=middle;spacingTop=-1;spacingLeft=3;spacingRight=3;rotatable=0;labelPosition=right;points=[];portConstraint=eastwest;strokeColor=inherit;" vertex="1" parent="hVPJP7GmSXmlCk5Nkvxj-7">
          <mxGeometry y="78" width="348" height="8" as="geometry" />
        </mxCell>
        <mxCell id="hVPJP7GmSXmlCk5Nkvxj-14" value="int Count" style="text;strokeColor=none;fillColor=none;align=left;verticalAlign=top;spacingLeft=4;spacingRight=4;overflow=hidden;rotatable=0;points=[[0,0.5],[1,0.5]];portConstraint=eastwest;whiteSpace=wrap;html=1;" vertex="1" parent="hVPJP7GmSXmlCk5Nkvxj-7">
          <mxGeometry y="86" width="348" height="26" as="geometry" />
        </mxCell>
        <mxCell id="hVPJP7GmSXmlCk5Nkvxj-16" value="int Capacity" style="text;strokeColor=none;fillColor=none;align=left;verticalAlign=top;spacingLeft=4;spacingRight=4;overflow=hidden;rotatable=0;points=[[0,0.5],[1,0.5]];portConstraint=eastwest;whiteSpace=wrap;html=1;" vertex="1" parent="hVPJP7GmSXmlCk5Nkvxj-7">
          <mxGeometry y="112" width="348" height="26" as="geometry" />
        </mxCell>
        <mxCell id="hVPJP7GmSXmlCk5Nkvxj-10" value="" style="line;strokeWidth=1;fillColor=none;align=left;verticalAlign=middle;spacingTop=-1;spacingLeft=3;spacingRight=3;rotatable=0;labelPosition=right;points=[];portConstraint=eastwest;strokeColor=inherit;" vertex="1" parent="hVPJP7GmSXmlCk5Nkvxj-7">
          <mxGeometry y="138" width="348" height="8" as="geometry" />
        </mxCell>
        <mxCell id="hVPJP7GmSXmlCk5Nkvxj-11" value="MyHashTable(int size)" style="text;strokeColor=none;fillColor=none;align=left;verticalAlign=top;spacingLeft=4;spacingRight=4;overflow=hidden;rotatable=0;points=[[0,0.5],[1,0.5]];portConstraint=eastwest;whiteSpace=wrap;html=1;" vertex="1" parent="hVPJP7GmSXmlCk5Nkvxj-7">
          <mxGeometry y="146" width="348" height="26" as="geometry" />
        </mxCell>
        <mxCell id="hVPJP7GmSXmlCk5Nkvxj-17" value="MyHashTable(int size, TKey key, TValue value)" style="text;strokeColor=none;fillColor=none;align=left;verticalAlign=top;spacingLeft=4;spacingRight=4;overflow=hidden;rotatable=0;points=[[0,0.5],[1,0.5]];portConstraint=eastwest;whiteSpace=wrap;html=1;" vertex="1" parent="hVPJP7GmSXmlCk5Nkvxj-7">
          <mxGeometry y="172" width="348" height="26" as="geometry" />
        </mxCell>
        <mxCell id="hVPJP7GmSXmlCk5Nkvxj-18" value="" style="line;strokeWidth=1;fillColor=none;align=left;verticalAlign=middle;spacingTop=-1;spacingLeft=3;spacingRight=3;rotatable=0;labelPosition=right;points=[];portConstraint=eastwest;strokeColor=inherit;" vertex="1" parent="hVPJP7GmSXmlCk5Nkvxj-7">
          <mxGeometry y="198" width="348" height="8" as="geometry" />
        </mxCell>
        <mxCell id="hVPJP7GmSXmlCk5Nkvxj-19" value="void Add(TKey key, TValue value)" style="text;strokeColor=none;fillColor=none;align=left;verticalAlign=top;spacingLeft=4;spacingRight=4;overflow=hidden;rotatable=0;points=[[0,0.5],[1,0.5]];portConstraint=eastwest;whiteSpace=wrap;html=1;" vertex="1" parent="hVPJP7GmSXmlCk5Nkvxj-7">
          <mxGeometry y="206" width="348" height="26" as="geometry" />
        </mxCell>
        <mxCell id="hVPJP7GmSXmlCk5Nkvxj-21" value="void Remove(TKey key)" style="text;strokeColor=none;fillColor=none;align=left;verticalAlign=top;spacingLeft=4;spacingRight=4;overflow=hidden;rotatable=0;points=[[0,0.5],[1,0.5]];portConstraint=eastwest;whiteSpace=wrap;html=1;" vertex="1" parent="hVPJP7GmSXmlCk5Nkvxj-7">
          <mxGeometry y="232" width="348" height="26" as="geometry" />
        </mxCell>
        <mxCell id="hVPJP7GmSXmlCk5Nkvxj-20" value="void Remove(TKey key, TValue value)" style="text;strokeColor=none;fillColor=none;align=left;verticalAlign=top;spacingLeft=4;spacingRight=4;overflow=hidden;rotatable=0;points=[[0,0.5],[1,0.5]];portConstraint=eastwest;whiteSpace=wrap;html=1;" vertex="1" parent="hVPJP7GmSXmlCk5Nkvxj-7">
          <mxGeometry y="258" width="348" height="26" as="geometry" />
        </mxCell>
        <mxCell id="hVPJP7GmSXmlCk5Nkvxj-22" value="List&amp;lt;TValue&amp;gt; Get(TKey key)" style="text;strokeColor=none;fillColor=none;align=left;verticalAlign=top;spacingLeft=4;spacingRight=4;overflow=hidden;rotatable=0;points=[[0,0.5],[1,0.5]];portConstraint=eastwest;whiteSpace=wrap;html=1;" vertex="1" parent="hVPJP7GmSXmlCk5Nkvxj-7">
          <mxGeometry y="284" width="348" height="26" as="geometry" />
        </mxCell>
        <mxCell id="hVPJP7GmSXmlCk5Nkvxj-23" value="TValue Get(TKey key, int index)" style="text;strokeColor=none;fillColor=none;align=left;verticalAlign=top;spacingLeft=4;spacingRight=4;overflow=hidden;rotatable=0;points=[[0,0.5],[1,0.5]];portConstraint=eastwest;whiteSpace=wrap;html=1;" vertex="1" parent="hVPJP7GmSXmlCk5Nkvxj-7">
          <mxGeometry y="310" width="348" height="26" as="geometry" />
        </mxCell>
        <mxCell id="hVPJP7GmSXmlCk5Nkvxj-24" value="bool Contains(Tkey key, TValue value)" style="text;strokeColor=none;fillColor=none;align=left;verticalAlign=top;spacingLeft=4;spacingRight=4;overflow=hidden;rotatable=0;points=[[0,0.5],[1,0.5]];portConstraint=eastwest;whiteSpace=wrap;html=1;" vertex="1" parent="hVPJP7GmSXmlCk5Nkvxj-7">
          <mxGeometry y="336" width="348" height="26" as="geometry" />
        </mxCell>
        <mxCell id="hVPJP7GmSXmlCk5Nkvxj-25" value="bool ContainsKey(Tkey key)" style="text;strokeColor=none;fillColor=none;align=left;verticalAlign=top;spacingLeft=4;spacingRight=4;overflow=hidden;rotatable=0;points=[[0,0.5],[1,0.5]];portConstraint=eastwest;whiteSpace=wrap;html=1;" vertex="1" parent="hVPJP7GmSXmlCk5Nkvxj-7">
          <mxGeometry y="362" width="348" height="26" as="geometry" />
        </mxCell>
        <mxCell id="hVPJP7GmSXmlCk5Nkvxj-26" value="bool ContainsValue(TValue value)" style="text;strokeColor=none;fillColor=none;align=left;verticalAlign=top;spacingLeft=4;spacingRight=4;overflow=hidden;rotatable=0;points=[[0,0.5],[1,0.5]];portConstraint=eastwest;whiteSpace=wrap;html=1;" vertex="1" parent="hVPJP7GmSXmlCk5Nkvxj-7">
          <mxGeometry y="388" width="348" height="26" as="geometry" />
        </mxCell>
        <mxCell id="hVPJP7GmSXmlCk5Nkvxj-27" value="void Clear" style="text;strokeColor=none;fillColor=none;align=left;verticalAlign=top;spacingLeft=4;spacingRight=4;overflow=hidden;rotatable=0;points=[[0,0.5],[1,0.5]];portConstraint=eastwest;whiteSpace=wrap;html=1;" vertex="1" parent="hVPJP7GmSXmlCk5Nkvxj-7">
          <mxGeometry y="414" width="348" height="26" as="geometry" />
        </mxCell>
        <mxCell id="hVPJP7GmSXmlCk5Nkvxj-28" style="edgeStyle=orthogonalEdgeStyle;rounded=0;orthogonalLoop=1;jettySize=auto;html=1;exitX=1;exitY=0.5;exitDx=0;exitDy=0;entryX=0.5;entryY=0;entryDx=0;entryDy=0;" edge="1" parent="1" source="hVPJP7GmSXmlCk5Nkvxj-8" target="hVPJP7GmSXmlCk5Nkvxj-1">
          <mxGeometry relative="1" as="geometry" />
        </mxCell>
      </root>
    </mxGraphModel>
  </diagram>
</mxfile>
